<?xml version="1.0" encoding="utf-8"?>
<!-- Generator: Adobe Illustrator 24.0.0, SVG Export Plug-In . SVG Version: 6.00 Build 0)  -->
<svg version="1.1" xmlns="http://www.w3.org/2000/svg" xmlns:xlink="http://www.w3.org/1999/xlink" x="0px" y="0px" width="800px"
	 height="800px" viewBox="0 0 100 100" style="enable-background:new 0 0 100 100;" xml:space="preserve">
<style type="text/css">
	.st0{fill:#FC6600;}
</style>
<g id="Cable">
</g>
<g id="Capa_1">
	<rect x="25.6" y="79.7" class="st0" width="5.6" height="4.7"/>
	<path class="st0" d="M46,84.4v-5.1l6.5-0.2c0,0,0,5.3,0,5.3"/>
	<path class="st0" d="M33,84.4c0-0.2,0-4.7,0-4.7l11.1-0.3v5"/>
	<polyline class="st0" points="33,77.3 33,74.6 44.1,74.2 44.1,77 	"/>
	<polyline class="st0" points="33,72.3 44.1,71.7 44.1,69 33,69.6 	"/>
	<polyline class="st0" points="44.1,66.5 33,67.2 33,64.6 44.1,63.7 	"/>
	<polyline class="st0" points="33,62.2 33,59.6 44.1,58.4 44.1,61.2 	"/>
	<polyline class="st0" points="33,57.3 33,54.7 44.1,53.2 44.1,56 	"/>
	<polyline class="st0" points="33,49.7 33,52.3 44.1,50.8 44.1,48 	"/>
	<polyline class="st0" points="33,47.3 44.1,45.6 44.1,42.7 33,44.6 	"/>
	<polyline class="st0" points="33,42.3 33,39.6 44.1,37.5 44.1,40.4 	"/>
	<polyline class="st0" points="33,37.2 33,34.6 44.1,32.3 44.1,35.1 	"/>
	<polyline class="st0" points="33,29.6 44.1,27 44.1,29.9 33,32.3 	"/>
	<polyline class="st0" points="33,27.2 33,24.7 44.1,21.8 44.1,24.5 	"/>
	<polyline class="st0" points="33,22.3 33,17.9 44.1,14.8 44.1,19.4 	"/>
	<polyline class="st0" points="33.4,16.8 33.4,11.4 43.5,8.3 43.5,14.1 	"/>
	<polyline class="st0" points="44.3,13.7 44.3,8.3 51.7,11.7 	"/>
	<polyline class="st0" points="54.5,84.4 54.5,79.1 70.6,79.6 70.6,84.4 	"/>
	<polyline class="st0" points="54.5,78.4 54.5,77.5 70.6,78.1 70.6,78.8 	"/>
	<path class="st0" d="M54.5,76.7c0,0.1,16.1,0.6,16.1,0.6v-2.6l-16.1-0.9"/>
	<polyline class="st0" points="54.5,72.1 70.6,73.1 70.6,73.9 54.5,72.9 	"/>
	<polyline class="st0" points="54.5,71.3 54.5,68.4 70.6,69.7 70.6,72.4 	"/>
	<path class="st0" d="M54.5,67.5c0-0.1,0-0.8,0-0.8l16.1,1.5V69"/>
	<polyline class="st0" points="54.5,65.9 54.5,63 70.6,64.8 70.6,67.5 	"/>
	<polyline class="st0" points="54.5,62.1 54.5,61.3 70.6,63.2 70.6,64 	"/>
	<polyline class="st0" points="54.5,60.4 54.5,57.5 70.6,59.8 70.6,62.5 	"/>
	<polyline class="st0" points="54.5,56.7 54.5,55.9 70.6,58.3 70.6,59.2 	"/>
	<polyline class="st0" points="54.5,55.1 54.5,52.2 70.6,54.9 70.6,57.5 	"/>
	<polyline class="st0" points="54.5,51.3 54.5,50.5 70.7,53.3 70.7,54.1 	"/>
	<polyline class="st0" points="54.5,49.7 54.5,46.7 70.6,49.9 70.6,52.6 	"/>
	<polyline class="st0" points="54.5,45.9 54.5,45 70.7,48.4 70.7,49.2 	"/>
	<polyline class="st0" points="54.5,44.2 54.5,41.3 70.7,45 70.6,47.7 	"/>
	<polyline class="st0" points="54.5,40.5 54.5,39.7 70.6,43.5 70.6,44.2 	"/>
	<polyline class="st0" points="54.5,38.8 54.5,35.9 70.7,40 70.7,42.7 	"/>
	<polyline class="st0" points="54.5,35.1 54.5,34.3 70.7,38.5 70.6,39.3 	"/>
	<polyline class="st0" points="54.5,33.4 54.5,30.5 70.7,35.1 70.6,37.7 	"/>
	<polyline class="st0" points="54.5,29.7 54.5,28.8 70.7,33.5 70.6,34.4 	"/>
	<polyline class="st0" points="54.5,28 54.5,25 70.7,30.1 70.7,32.8 	"/>
	<polyline class="st0" points="54.5,24.3 54.5,23.5 70.7,28.6 70.7,29.4 	"/>
	<path class="st0" d="M54.5,22.6c0-0.1,0-2.9,0-2.9l16.2,5.5v2.7"/>
	<polyline class="st0" points="54.5,18.9 54.5,18 70.7,23.7 70.7,24.4 	"/>
	<polyline class="st0" points="54.5,17.3 54.5,12.3 70.7,18.4 70.7,23 	"/>
	<polyline class="st0" points="46,78.5 46,77.7 52.5,77.5 52.5,78.4 	"/>
	<polyline class="st0" points="46,76.9 52.5,76.7 52.5,73.8 46,74 	"/>
	<polyline class="st0" points="46,73.2 46,72.4 52.5,72.1 52.5,73 	"/>
	<polyline class="st0" points="46,71.6 52.5,71.3 52.5,68.4 46,68.8 	"/>
	<path class="st0" d="M46,67.1c0.2,0,6.5-0.4,6.5-0.4v0.9L46,67.9"/>
	<path class="st0" d="M46,66.3c0.2,0,6.5-0.4,6.5-0.4V63L46,63.5"/>
	<polyline class="st0" points="46,62.7 52.5,62.1 52.5,61.3 46,61.9 	"/>
	<path class="st0" d="M46,61c0.1,0,6.5-0.6,6.5-0.6v-2.9L46,58.3"/>
	<path class="st0" d="M46,57.3c0.1,0.1,6.5-0.6,6.5-0.6v-0.8L46,56.6"/>
	<polyline class="st0" points="46,55.7 52.5,55 52.5,52.2 46,52.9 	"/>
	<polyline class="st0" points="46,51.3 52.5,50.5 52.5,51.3 46,52.2 	"/>
	<polyline class="st0" points="46,50.5 52.5,49.6 52.5,46.7 46,47.7 	"/>
	<polyline class="st0" points="46,46.9 52.5,45.9 52.5,45.1 46,46 	"/>
	<polyline class="st0" points="46,45.2 52.5,44.2 52.5,41.3 46,42.5 	"/>
	<polyline class="st0" points="46,41.6 52.5,40.5 52.5,39.7 46,40.8 	"/>
	<polyline class="st0" points="46,37.2 52.5,35.9 52.5,38.8 46,39.9 	"/>
	<polyline class="st0" points="46,36.3 52.5,35.1 52.5,34.3 46,35.5 	"/>
	<polyline class="st0" points="46,34.7 52.5,33.4 52.5,30.5 46,31.9 	"/>
	<polyline class="st0" points="46,31 52.5,29.7 52.5,28.8 46,30.2 	"/>
	<polyline class="st0" points="46,29.4 52.5,28 52.5,25.2 46,26.7 	"/>
	<polyline class="st0" points="46,25.7 46,25 52.5,23.5 52.5,24.3 	"/>
	<polyline class="st0" points="46,24.1 46,21.3 52.5,19.7 52.5,22.5 	"/>
	<polyline class="st0" points="46,20.5 46,19.7 52.5,18 52.5,18.9 	"/>
	<path class="st0" d="M46,18.8c0,0-0.1-4.7,0-4.7s6.5-1.8,6.5-1.8v4.8"/>
	<polyline class="st0" points="25.7,78.9 25.7,78.2 31.3,78.1 31.3,78.9 	"/>
	<path class="st0" d="M25.7,74.8l5.6-0.1v2.6c0,0-5.5,0.2-5.6,0.2"/>
	<polyline class="st0" points="25.7,74.1 31.2,73.9 31.2,73.1 25.7,73.3 	"/>
	<path class="st0" d="M25.7,72.5c0.2,0,5.6-0.2,5.6-0.2v-2.7L25.7,70"/>
	<path class="st0" d="M25.7,69.3c0.2,0,5.5-0.3,5.5-0.3v-0.8l-5.5,0.4"/>
	<polyline class="st0" points="25.7,67.7 31.3,67.4 31.3,64.7 25.7,65.2 	"/>
	<polyline class="st0" points="25.7,64.4 31.2,64 31.3,63.2 25.7,63.7 	"/>
	<polyline class="st0" points="25.7,62.9 31.2,62.4 31.3,59.8 25.7,60.3 	"/>
	<path class="st0" d="M25.7,59.5c0.1,0,5.5-0.5,5.5-0.5v-0.8l-5.5,0.7"/>
	<polyline class="st0" points="25.7,58 31.2,57.4 31.2,54.8 25.7,55.5 	"/>
	<path class="st0" d="M25.7,54.7l5.6-0.7c0,0,0-0.8,0-0.8c0,0-5.6,0.7-5.6,0.7"/>
	<path class="st0" d="M25.7,50.6c0.2,0,5.5-0.8,5.5-0.8s0.1,2.7,0.1,2.7c-0.1,0-5.6,0.7-5.6,0.7"/>
	<path class="st0" d="M25.7,49.9c0.4,0.1,5.6-0.8,5.6-0.8s0-0.8,0-0.8c0,0.1-5.6,0.8-5.6,0.8"/>
	<path class="st0" d="M25.7,48.4c0.1,0,5.6-0.8,5.6-0.8s0.1-2.7,0-2.7c-0.1,0-5.6,0.9-5.6,0.9"/>
	<polyline class="st0" points="25.7,45 31.2,44.1 31.2,43.3 25.7,44.2 	"/>
	<polyline class="st0" points="25.7,43.5 31.2,42.5 31.2,39.9 25.7,41 	"/>
	<polyline class="st0" points="25.7,40.2 31.2,39.1 31.2,38.4 25.7,39.4 	"/>
	<path class="st0" d="M25.7,38.7c0.1,0,5.5-1.1,5.5-1.1v-2.7l-5.5,1.2"/>
	<polyline class="st0" points="25.7,35.3 31.2,34.2 31.2,33.4 25.7,34.5 	"/>
	<polyline class="st0" points="25.7,33.8 31.2,32.6 31.2,29.9 25.7,31.3 	"/>
	<polyline class="st0" points="25.7,30.5 31.2,29.2 31.2,28.5 25.7,29.7 	"/>
	<polyline class="st0" points="25.7,29 31.2,27.7 31.2,25 25.7,26.4 	"/>
	<polyline class="st0" points="31.2,24.2 31.2,23.5 25.7,24.8 25.7,25.7 	"/>
	<polyline class="st0" points="31.2,22.8 25.7,24.2 25.7,19.8 31.2,18.3 	"/>
	<polyline class="st0" points="32.3,11.3 44.7,7.6 44.7,6.1 32.3,10 	"/>
	<polyline class="st0" points="72.1,84.4 72.1,79.7 73.9,79.7 73.9,84.4 	"/>
	<polyline class="st0" points="72.1,78.9 72.1,78.1 73.9,78.1 73.9,78.9 	"/>
	<polyline class="st0" points="72.1,77.4 73.9,77.4 73.9,74.8 72.1,74.8 	"/>
	<path class="st0" d="M72.1,74c0.1,0,1.7,0.1,1.7,0.1v-0.7l-1.7-0.1"/>
	<path class="st0" d="M72.1,72.5c0.1,0,1.7,0,1.7,0v-2.5l-1.7-0.1"/>
	<path class="st0" d="M72.1,69.1c0.1,0,1.7,0.1,1.7,0.1v-0.8l-1.7-0.1"/>
	<polyline class="st0" points="72.1,67.6 73.8,67.7 73.8,65.1 72.1,64.9 	"/>
	<path class="st0" d="M72.1,64.2l1.7,0.1c0,0,0-0.7,0-0.7c0,0-1.7-0.2-1.7-0.2"/>
	<path class="st0" d="M72.1,62.7c0,0,1.7,0.2,1.7,0.2v-2.6L72.1,60"/>
	<polyline class="st0" points="72.1,59.3 73.8,59.5 73.8,58.8 72.1,58.5 	"/>
	<polyline class="st0" points="72.1,57.8 73.8,58 73.8,55.5 72.1,55.2 	"/>
	<polyline class="st0" points="72.1,54.3 73.8,54.6 73.8,53.9 72.1,53.6 	"/>
	<polyline class="st0" points="72.1,52.9 73.8,53.1 73.8,50.6 72.1,50.2 	"/>
	<path class="st0" d="M72.1,49.4c0,0,1.7,0.4,1.7,0.4v-0.8l-1.7-0.4"/>
	<polyline class="st0" points="72.1,47.9 73.8,48.3 73.8,45.7 72.1,45.3 	"/>
	<polyline class="st0" points="72.1,44.5 73.8,44.9 73.8,44.2 72.1,43.7 	"/>
	<path class="st0" d="M72.1,43.1c0.1,0,1.7,0.3,1.7,0.3v-2.6l-1.7-0.4"/>
	<polyline class="st0" points="72.1,39.7 73.8,40.1 73.8,39.3 72.1,38.9 	"/>
	<polyline class="st0" points="72.1,38.1 73.8,38.6 73.8,36 72.1,35.5 	"/>
	<polyline class="st0" points="72.1,34.8 73.8,35.3 73.8,34.5 72.1,34 	"/>
	<polyline class="st0" points="72.1,33.2 73.8,33.7 73.8,31.1 72.1,30.6 	"/>
	<path class="st0" d="M72.1,29.9c0,0,1.7,0.5,1.7,0.5v-0.8L72.1,29"/>
	<polyline class="st0" points="72.1,28.3 73.8,28.8 73.8,26.3 72.1,25.7 	"/>
	<polyline class="st0" points="72.1,25 73.8,25.5 73.8,24.7 72.1,24.1 	"/>
	<polyline class="st0" points="72.1,23.4 73.8,24 73.8,19.6 72.1,19 	"/>
	<rect x="22.5" y="85.1" class="st0" width="55.2" height="3.4"/>
	<rect x="20.7" y="89" class="st0" width="58.8" height="4.1"/>
	<g>
	</g>
	<g>
	</g>
	<g>
	</g>
	<g>
	</g>
	<g>
	</g>
</g>
</svg>
