<?xml version="1.0" encoding="utf-8"?>
<!-- Generator: Adobe Illustrator 24.0.0, SVG Export Plug-In . SVG Version: 6.00 Build 0)  -->
<svg version="1.1" xmlns="http://www.w3.org/2000/svg" xmlns:xlink="http://www.w3.org/1999/xlink" x="0px" y="0px" width="279px"
	 height="312px" viewBox="0 0 279 312" style="enable-background:new 0 0 279 312;" xml:space="preserve">
<style type="text/css">
	.st0{fill:#00031F;}
	.st1{fill:none;}
	.st2{fill:#FFFFFF;}
</style>
<g id="Fondo">
	<rect class="st0" width="279" height="312"/>
	<g>
		<rect x="22.1" y="214.2" class="st1" width="243" height="54"/>
		<path class="st2" d="M47.8,224.8c0,3.7-1.4,6.5-4.2,8.3s-6.2,2.7-10.2,2.7c-0.7,0-1.3,0-1.6,0c0,2.9,0.1,6.8,0.3,11.6h-6.6
			c0.2-4.5,0.3-9.8,0.3-16c0-5.6-0.1-10.5-0.3-14.6h4.1c0.6,0,1.7,0,3.3-0.1s3.1-0.1,4.3-0.1c3,0,5.5,0.7,7.5,2S47.8,222,47.8,224.8
			z M41.7,226.1c0-3.3-2.2-5-6.7-5c-1.1,0-2.3,0.1-3.5,0.4c0.2,3,0.3,6.3,0.3,10c0.4,0,0.8,0,1.4,0
			C38.9,231.5,41.7,229.7,41.7,226.1z"/>
		<path class="st2" d="M80.4,231.5c0,4.8-1.5,8.8-4.4,11.9s-6.6,4.7-10.9,4.7c-4.1,0-7.6-1.4-10.4-4.3s-4.2-6.6-4.2-11.1
			c0-4.8,1.5-8.8,4.4-11.9s6.6-4.7,10.9-4.7c4.1,0,7.6,1.4,10.4,4.3S80.4,227,80.4,231.5z M74,232.2c0-3.3-0.8-5.9-2.5-7.9
			s-3.7-3-6.2-3c-2.3,0-4.2,1-5.8,3.1s-2.4,4.6-2.4,7.8c0,3.3,0.8,5.9,2.5,7.9s3.7,3.1,6.2,3.1c2.3,0,4.2-1,5.8-3.1
			S74,235.3,74,232.2z"/>
		<path class="st2" d="M120.9,247.3H114c0-2.7-0.2-7.1-0.5-13.4s-0.5-10.2-0.5-11.8h-0.4c-0.2,0.9-0.6,2.7-1.2,5.2
			s-1.9,6.3-3.8,11.2s-2.8,7.9-2.8,8.8h-5.2c0-1-0.9-4-2.7-8.9s-2.9-8.4-3.5-10.4s-1-4-1.3-5.9h-0.4c0,2-0.2,6.1-0.6,12.6
			s-0.6,10.6-0.6,12.7h-6.2c0-0.5,0.6-5.2,1.7-14.1s1.7-14.4,1.7-16.4H97c0,1.8,1,5.6,2.9,11.6s2.9,9.8,2.9,11.5h0.4
			c0-1.7,1.1-5.5,3.3-11.5s3.3-9.8,3.3-11.6h9c0,3.2,0.4,9,1.1,17.3S120.9,246.8,120.9,247.3z"/>
		<path class="st2" d="M149.4,224.8c0,3.7-1.4,6.5-4.2,8.3s-6.2,2.7-10.2,2.7c-0.7,0-1.3,0-1.6,0c0,2.9,0.1,6.8,0.3,11.6h-6.6
			c0.2-4.5,0.3-9.8,0.3-16c0-5.6-0.1-10.5-0.3-14.6h4.1c0.6,0,1.7,0,3.3-0.1s3.1-0.1,4.3-0.1c3,0,5.5,0.7,7.5,2
			S149.4,222,149.4,224.8z M143.3,226.1c0-3.3-2.2-5-6.7-5c-1.1,0-2.3,0.1-3.5,0.4c0.2,3,0.3,6.3,0.3,10c0.4,0,0.8,0,1.4,0
			C140.5,231.5,143.3,229.7,143.3,226.1z"/>
		<path class="st2" d="M173.9,242.2l-0.2,5.2h-19.9c0.2-4.7,0.3-10,0.3-16c0-5.7-0.1-10.5-0.3-14.6h19l-0.3,5.1
			c-4.7-0.3-8.9-0.4-12.8-0.4c0.2,2.2,0.2,4.7,0.2,7.7c3.3,0,6.8-0.1,10.5-0.3v4.9c-3.7-0.2-7.1-0.2-10.5-0.2c0,3.2,0.1,6.1,0.2,8.9
			C164.5,242.5,169,242.4,173.9,242.2z"/>
		<path class="st2" d="M201.9,216.8c0,0.6-0.9,2.4-2.7,5.2c-2.7,4.3-4.4,7-5,8c-1.8,3.2-2.7,5.5-2.7,7.1c0,3.4,0.1,6.9,0.3,10.3
			h-6.7c0.2-3.4,0.3-6.9,0.3-10.3c0-1.6-0.8-4-2.5-7.2c-0.8-1.5-2.3-4.2-4.6-8c-1.6-2.8-2.5-4.4-2.5-4.9h7.4c0,0.6,1,2.9,2.9,7.1
			s2.9,6.9,2.9,8.1h0.4c0-1.1,1-3.7,2.9-7.7s2.9-6.5,2.9-7.5H201.9z"/>
		<path class="st2" d="M230.9,216.8c-0.1,5.3-0.2,10.5-0.2,15.8c0,10.4-4.3,15.6-12.8,15.6c-4.2,0-7.4-1.1-9.5-3.4
			s-3.2-6.4-3.2-12.4c0-5.3-0.1-10.4-0.2-15.5h6.6c-0.2,5.3-0.3,10.4-0.3,15.3c0,4.3,0.5,7.2,1.6,8.8s2.8,2.4,5.1,2.4
			c2.4,0,4.1-0.8,5.2-2.4s1.6-4.6,1.6-8.9c0-4.8-0.1-9.8-0.3-15.2H230.9z"/>
		<path class="st2" d="M257,239c0,6.1-4.4,9.2-13.2,9.2c-3,0-5.8-0.4-8.3-1.1l1.1-5.2c2.5,0.9,4.9,1.3,7.2,1.3
			c2.5,0,4.3-0.2,5.4-0.7s1.6-1.3,1.6-2.4c0-1.2-0.5-2.2-1.5-3c-0.9-0.7-2.7-1.7-5.4-2.8c-2.5-1.1-4.3-2.2-5.5-3.5
			c-1.5-1.6-2.3-3.5-2.3-5.8c0-2.7,1-4.8,3-6.3s4.9-2.3,8.6-2.3c3.1,0,5.6,0.3,7.7,0.8l-0.9,5.2c-2.1-0.8-4.4-1.1-6.8-1.1
			c-3.7,0-5.5,1-5.5,3c0,1,0.4,1.9,1.3,2.6c0.8,0.6,2.4,1.4,4.9,2.4c2.7,1.1,4.7,2.3,6,3.6C256.2,234.3,257,236.4,257,239z"/>
	</g>
	<g>
		<rect x="23.1" y="268.2" class="st1" width="243" height="27"/>
		<path class="st2" d="M25.3,268.2h12.3v3.5H29v4.5h7.7v3.5H29v4.5h8.6v3.5H25.3V268.2z"/>
		<path class="st2" d="M47.2,286.5c-1.3-1-2.2-2.3-2.7-4l3.4-1.4c0.3,1,0.7,1.8,1.4,2.5c0.6,0.6,1.5,0.9,2.4,0.9
			c0.8,0,1.5-0.2,2.1-0.6c0.6-0.4,0.9-1,0.9-1.7c0-0.7-0.3-1.3-0.8-1.8c-0.5-0.5-1.5-0.9-2.9-1.5l-1.2-0.4c-1.2-0.4-2.3-1.1-3.2-2
			c-0.9-0.9-1.3-2-1.3-3.4c0-1,0.3-1.9,0.8-2.8c0.5-0.8,1.3-1.5,2.2-2c1-0.5,2-0.7,3.2-0.7c1.7,0,3.1,0.4,4.1,1.2
			c1,0.8,1.7,1.8,2.1,2.9l-3.2,1.4c-0.2-0.6-0.5-1.1-1-1.5c-0.5-0.4-1.1-0.6-1.9-0.6c-0.8,0-1.4,0.2-2,0.6c-0.5,0.4-0.8,0.9-0.8,1.4
			c0,0.6,0.2,1.1,0.7,1.5c0.5,0.4,1.3,0.8,2.4,1.2l1.2,0.4c1.7,0.6,3,1.3,3.8,2.3c0.9,0.9,1.3,2.2,1.3,3.7c0,1.3-0.3,2.3-1,3.2
			c-0.6,0.9-1.5,1.5-2.5,2c-1,0.4-2.1,0.6-3.1,0.6C50,287.9,48.5,287.5,47.2,286.5z"/>
		<path class="st2" d="M70,271.6h-5.4v-3.5H79v3.5h-5.4v15.9H70V271.6z"/>
		<path class="st2" d="M86.5,268.2h7c1.3,0,2.4,0.3,3.4,0.8c1,0.5,1.7,1.2,2.3,2.2c0.5,0.9,0.8,2,0.8,3.1c0,1.2-0.4,2.3-1.2,3.3
			c-0.8,1-1.8,1.7-3,2.1l0,0.2l5.2,7.4v0.2h-4.2l-5-7.3h-1.7v7.3h-3.6V268.2z M93.5,276.9c0.8,0,1.5-0.3,2-0.8s0.8-1.1,0.8-1.9
			c0-0.7-0.2-1.4-0.7-1.9s-1.2-0.8-2-0.8h-3.4v5.3H93.5z"/>
		<path class="st2" d="M111.3,287c-1.1-0.6-2-1.6-2.6-2.8c-0.6-1.2-0.9-2.7-0.9-4.3v-11.6h3.6V280c0,1.3,0.3,2.4,1,3.2
			c0.7,0.8,1.6,1.2,2.9,1.2c1.2,0,2.2-0.4,2.9-1.2c0.7-0.8,1-1.9,1-3.2v-11.9h3.6v11.6c0,1.6-0.3,3-0.9,4.2
			c-0.6,1.2-1.5,2.2-2.6,2.9c-1.1,0.7-2.5,1-4,1C113.8,287.9,112.5,287.6,111.3,287z"/>
		<path class="st2" d="M135.4,286.6c-1.5-0.9-2.8-2.1-3.7-3.6s-1.3-3.2-1.3-5.1s0.4-3.6,1.3-5.1s2.1-2.8,3.7-3.6
			c1.5-0.9,3.3-1.3,5.1-1.3c2.9,0,5.3,1.1,7.2,3.2l-2.6,2.5c-1.2-1.5-2.8-2.2-4.6-2.2c-1.2,0-2.3,0.3-3.3,0.8
			c-1,0.5-1.8,1.3-2.3,2.3c-0.6,1-0.9,2.2-0.9,3.5c0,1.3,0.3,2.5,0.9,3.5c0.6,1,1.3,1.8,2.3,2.3c1,0.5,2.1,0.8,3.3,0.8
			c2,0,3.7-0.8,5.1-2.5l2.6,2.5c-1,1.2-2.1,2-3.4,2.6c-1.3,0.6-2.8,0.9-4.3,0.9C138.7,287.9,137,287.5,135.4,286.6z"/>
		<path class="st2" d="M160.1,271.6h-5.4v-3.5h14.4v3.5h-5.4v15.9h-3.6V271.6z"/>
		<path class="st2" d="M179.8,287c-1.1-0.6-2-1.6-2.6-2.8c-0.6-1.2-0.9-2.7-0.9-4.3v-11.6h3.6V280c0,1.3,0.3,2.4,1,3.2
			c0.7,0.8,1.6,1.2,2.9,1.2c1.2,0,2.2-0.4,2.9-1.2c0.7-0.8,1-1.9,1-3.2v-11.9h3.6v11.6c0,1.6-0.3,3-0.9,4.2
			c-0.6,1.2-1.5,2.2-2.6,2.9c-1.1,0.7-2.5,1-4,1C182.2,287.9,180.9,287.6,179.8,287z"/>
		<path class="st2" d="M199.9,268.2h7c1.3,0,2.4,0.3,3.4,0.8c1,0.5,1.7,1.2,2.3,2.2c0.5,0.9,0.8,2,0.8,3.1c0,1.2-0.4,2.3-1.2,3.3
			c-0.8,1-1.8,1.7-3,2.1l0,0.2l5.2,7.4v0.2h-4.2l-5-7.3h-1.7v7.3h-3.6V268.2z M206.9,276.9c0.8,0,1.5-0.3,2-0.8s0.8-1.1,0.8-1.9
			c0-0.7-0.2-1.4-0.7-1.9s-1.2-0.8-2-0.8h-3.4v5.3H206.9z"/>
		<path class="st2" d="M227,268.2h4.2l7.3,19.3h-4l-1.6-4.6h-7.4l-1.6,4.6h-4L227,268.2z M231.6,279.5l-1.7-4.9l-0.7-2.3H229
			l-0.7,2.3l-1.7,4.9H231.6z"/>
		<path class="st2" d="M246.9,286.5c-1.3-1-2.2-2.3-2.7-4l3.4-1.4c0.3,1,0.7,1.8,1.4,2.5c0.6,0.6,1.5,0.9,2.4,0.9
			c0.8,0,1.5-0.2,2.1-0.6c0.6-0.4,0.9-1,0.9-1.7c0-0.7-0.3-1.3-0.8-1.8s-1.5-0.9-2.9-1.5l-1.2-0.4c-1.2-0.4-2.3-1.1-3.2-2
			s-1.3-2-1.3-3.4c0-1,0.3-1.9,0.8-2.8c0.5-0.8,1.3-1.5,2.2-2c1-0.5,2-0.7,3.2-0.7c1.7,0,3.1,0.4,4.1,1.2s1.7,1.8,2.1,2.9l-3.2,1.4
			c-0.2-0.6-0.5-1.1-1-1.5c-0.5-0.4-1.1-0.6-1.9-0.6c-0.8,0-1.4,0.2-2,0.6s-0.8,0.9-0.8,1.4c0,0.6,0.2,1.1,0.7,1.5
			c0.5,0.4,1.3,0.8,2.4,1.2l1.2,0.4c1.7,0.6,3,1.3,3.8,2.3c0.9,0.9,1.3,2.2,1.3,3.7c0,1.3-0.3,2.3-1,3.2c-0.6,0.9-1.5,1.5-2.5,2
			c-1,0.4-2.1,0.6-3.1,0.6C249.7,287.9,248.2,287.5,246.9,286.5z"/>
	</g>
	<rect x="18.4" y="204.7" class="st2" width="243" height="1.9"/>
	<rect x="18.4" y="256.7" class="st2" width="243" height="1.9"/>
</g>
<g id="Guias">
	<polyline class="st2" points="59.7,119.9 59.7,204.4 56.5,204.4 56.5,119.9 	"/>
	<rect x="56.5" y="119.4" class="st2" width="66.5" height="3.2"/>
	<rect x="119.7" y="122.7" class="st2" width="3.3" height="81.8"/>
	<polyline class="st2" points="104,20.7 104,204.4 100.7,204.4 100.7,20.7 	"/>
	<rect x="100.7" y="19.1" class="st2" width="87.4" height="3.2"/>
	<polyline class="st2" points="188.2,22.3 188.2,204.4 184.9,204.4 184.9,22.3 	"/>
	<polyline class="st2" points="165.7,74.3 165.7,204.4 162.5,204.4 162.5,74.3 	"/>
	<rect x="162.5" y="74.3" class="st2" width="66.5" height="3.2"/>
	<rect x="225.7" y="75.9" class="st2" width="3.3" height="128.5"/>
	<g>
	</g>
	<g>
	</g>
	<g>
	</g>
	<g>
	</g>
	<g>
	</g>
</g>
</svg>
